/* XPM */
static char *result[] = {
/* columns rows colors chars-per-pixel */
"32 32 70 1 ",
"  c #2E4D32",
". c #2E4E32",
"X c #2F5034",
"o c #305235",
"O c #305435",
"+ c #355E3A",
"@ c #417347",
"# c #437549",
"$ c #437649",
"% c #45744B",
"& c #477E4E",
"* c #4F8D57",
"= c #508D58",
"- c #52915A",
"; c #53945B",
": c #589B61",
"> c #589C61",
", c #5CA365",
"< c #5DA466",
"1 c #5EA667",
"2 c #5EA867",
"3 c #63AF6C",
"4 c #64B36E",
"5 c #65B46F",
"6 c #66B570",
"7 c #67B972",
"8 c #68B972",
"9 c #69BA73",
"0 c #69BC74",
"q c #6BBF75",
"w c #6CC177",
"e c #6CC277",
"r c #6DC478",
"t c #6DC578",
"y c #6EC479",
"u c #6EC679",
"i c #6FC77A",
"p c #6FC87A",
"a c #70C77B",
"s c #70C87B",
"d c #70C97B",
"f c #71CC7C",
"g c #71CC7D",
"h c #72CC7D",
"j c #73CF7F",
"k c #74CF7F",
"l c #73D07F",
"z c #74D07F",
"x c #74D17F",
"c c #75CE80",
"v c #75CF80",
"b c #75D080",
"n c #74D180",
"m c #74D280",
"M c #75D380",
"N c #75D381",
"B c #76D381",
"V c #76D382",
"C c #77D382",
"Z c #77D283",
"A c #77D383",
"S c #75D481",
"D c #76D481",
"F c #76D482",
"G c #77D482",
"H c #77D583",
"J c #78D383",
"K c #78D484",
"L c #7AD585",
"P c None",
/* pixels */
"PPPPPPPPPPPPPPPPPPPPPPPPPPPPPPPP",
"PPPPPPPPPPPPPPFFFFPPPPPPPPPPPPPP",
"PPPPPPPPPPGSSSSSSSSSDFPPPPPPPPPP",
"PPPPPPPPPPaSSSSSSSSSSSSHPPPPPPPP",
"PPPPPPPPPPPSSSSSSSSSSSSSFPPPPPPP",
"PPPPPPFPPPPmSSSSSSSSSSSSSVPPPPPP",
"PPPPPSSPPPP8SSSSSSSSSSSSS5PPPPPP",
"PPPPFSSVPPPPSSSSSSSSSSSSSPPPPPPP",
"PPPPSSSSPPPPjSSSSSSSSSSSiPPPPPPP",
"PPPSSSSSvPPP5SSSSSSSSSSS,PPPPPPP",
"PPPSSSSSVPPPPSSSSSSSSSSSPPPPFPPP",
"PPPSSSSSSPPPPhSSSSSSSSSePPPPSPPP",
"PPnSSSSSSbPPP3SSSSSSSSS>PPPVSkPP",
"PPnSSSSSSDPPPPSSSSSSSSNPPPPDSzPP",
"PPnSSSSSSSPPPPsSSSSSSS0PPPPSSnPP",
"PPzSSS%  XPPPPP       PPPPPo.PPP",
"PPfSSSPPPPPPPPPPPPPPPPPPPPPPPPPP",
"PPrSSSPPPPPPPPPPPPPPPPPPPPPPPPPP",
"PP4SSScZAJKLPPPPAAAAAPPPPLKJJPPP",
"PPPSSSSSSSSSPPPPSSSSmPPPPSSSSPPP",
"PPPtSSSSSSSSPPPPySSS7PPPCSSSdPPP",
"PPP-SSSSSSSSBPPP<SSS=PPPFSSS;PPP",
"PPPPqSSSSSSSSPPPPSSxPPPPSSSrPPPP",
"PPPPPlSSSSSSSvPPPwS6PPPVSSmPPPPP",
"PPPPP#MSSSSSSVPPP1S-PPPFSN&PPPPP",
"PPPPPP$xSSSSSSPPPPNPPPPSm&PPPPPP",
"PPPPPPPOrSSSSSbPPP9PPPVp+PPPPPPP",
"PPPPPPPPP*gSSSFPPPPPPP:PPPPPPPPP",
"PPPPPPPPPPP@2uNPPPPPPPPPPPPPPPPP",
"PPPPPPPPPPPPPPPPPPPPPPPPPPPPPPPP",
"PPPPPPPPPPPPPPPPPPPPPPPPPPPPPPPP",
"PPPPPPPPPPPPPPPPPPPPPPPPPPPPPPPP"
};
