/* XPM */
static char *result[] = {
/* columns rows colors chars-per-pixel */
"128 128 63 1 ",
"  c #0D130E",
". c #121D14",
"X c #182419",
"o c #1F2F21",
"O c #1F3221",
"+ c #243926",
"@ c #263728",
"# c #2E3E30",
"$ c #26412A",
"% c #29412C",
"& c #2D4731",
"* c #2E4932",
"= c #314D35",
"- c #2D5031",
"; c #37533B",
": c #36583A",
"> c #39593D",
", c #3B613F",
"< c #3D5E41",
"1 c #3E6343",
"2 c #416545",
"3 c #426D47",
"4 c #456D4A",
"5 c #486E4D",
"6 c #47744D",
"7 c #48744E",
"8 c #4B7C52",
"9 c #4E8255",
"0 c #518557",
"q c #538759",
"w c #548C5B",
"e c #588E5F",
"r c #56915D",
"t c #58905F",
"y c #5A9561",
"u c #5C9B64",
"i c #5DA366",
"p c #61A569",
"a c #64AA6D",
"s c #66B06F",
"d c #67AF70",
"f c #6CAB74",
"g c #6AB474",
"h c #6CBB76",
"j c #6FBD79",
"k c #71BE7A",
"l c #6CC076",
"z c #6FC279",
"x c #6FC87A",
"c c #72C37C",
"v c #73CB7E",
"b c #77C581",
"n c #75CD81",
"m c #7ACE85",
"M c #7DCE88",
"N c #75D481",
"B c #7AD485",
"V c #7DD589",
"C c #80D78B",
"Z c #81D88C",
"A c #86D990",
"S c #88D893",
"D c None",
/* pixels */
"DDDDDDDDDDDDDDDDDDDDDDDDDDDDDDDDDDDDDDDDDDDDDDDDDDDDDDDDDDDDDDDDDDDDDDDDDDDDDDDDDDDDDDDDDDDDDDDDDDDDDDDDDDDDDDDDDDDDDDDDDDDDDDDD",
"DDDDDDDDDDDDDDDDDDDDDDDDDDDDDDDDDDDDDDDDDDDDDDDDDDDDDDDDDDDDDDDDDDDDDDDDDDDDDDDDDDDDDDDDDDDDDDDDDDDDDDDDDDDDDDDDDDDDDDDDDDDDDDDD",
"DDDDDDDDDDDDDDDDDDDDDDDDDDDDDDDDDDDDDDDDDDDDDDDDDDDDDDDDDDDDDDDDDDDDDDDDDDDDDDDDDDDDDDDDDDDDDDDDDDDDDDDDDDDDDDDDDDDDDDDDDDDDDDDD",
"DDDDDDDDDDDDDDDDDDDDDDDDDDDDDDDDDDDDDDDDDDDDDDDDDDDDDDDDDDDDDDDDDDDDDDDDDDDDDDDDDDDDDDDDDDDDDDDDDDDDDDDDDDDDDDDDDDDDDDDDDDDDDDDD",
"DDDDDDDDDDDDDDDDDDDDDDDDDDDDDDDDDDDDDDDDDDDDDDDDDDDDDDDDDDDDDDDDDDDDDDDDDDDDDDDDDDDDDDDDDDDDDDDDDDDDDDDDDDDDDDDDDDDDDDDDDDDDDDDD",
"DDDDDDDDDDDDDDDDDDDDDDDDDDDDDDDDDDDDDDDDDDDDDDDDDDDDDDDDDDVNNVBNNBVBNVDDDDDDDDDDDDDDDDDDDDDDDDDDDDDDDDDDDDDDDDDDDDDDDDDDDDDDDDDD",
"DDDDDDDDDDDDDDDDDDDDDDDDDDDDDDDDDDDDDDDDDDDDDDDDDDDDNBNNNNNNNNNNNNNNNNNNNNVNDDDDDDDDDDDDDDDDDDDDDDDDDDDDDDDDDDDDDDDDDDDDDDDDDDDD",
"DDDDDDDDDDDDDDDDDDDDDDDDDDDDDDDDDDDDDDDDDDDDDDDDNBNNNNNNNNNNNNNNNNNNNNNNNNNNNNNVDDDDDDDDDDDDDDDDDDDDDDDDDDDDDDDDDDDDDDDDDDDDDDDD",
"DDDDDDDDDDDDDDDDDDDDDDDDDDDDDDDDDDDDDDDDDDDDDBNNNNNNNNNNNNNNNNNNNNNNNNNNNNNNNNNNNNVDDDDDDDDDDDDDDDDDDDDDDDDDDDDDDDDDDDDDDDDDDDDD",
"DDDDDDDDDDDDDDDDDDDDDDDDDDDDDDDDDDDDDDDDDDDNNNNNNNNNNNNNNNNNNNNNNNNNNNNNNNNNNNNNNNNNNVDDDDDDDDDDDDDDDDDDDDDDDDDDDDDDDDDDDDDDDDDD",
"DDDDDDDDDDDDDDDDDDDDDDDDDDDDDDDDDDDDDDDDBNNNNNNNNNNNNNNNNNNNNNNNNNNNNNNNNNNNNNNNNNNNNNNVDDDDDDDDDDDDDDDDDDDDDDDDDDDDDDDDDDDDDDDD",
"DDDDDDDDDDDDDDDDDDDDDDDDDDDDDDDDDDDDDDDDVNNNNNNNNNNNNNNNNNNNNNNNNNNNNNNNNNNNNNNNNNNNNNNNNBDDDDDDDDDDDDDDDDDDDDDDDDDDDDDDDDDDDDDD",
"DDDDDDDDDDDDDDDDDDDDDDDDDDDDDDDDDDDDDDDDDNNNNNNNNNNNNNNNNNNNNNNNNNNNNNNNNNNNNNNNNNNNNNNNNNNVDDDDDDDDDDDDDDDDDDDDDDDDDDDDDDDDDDDD",
"DDDDDDDDDDDDDDDDDDDDDDDDDDDDDDDDDDDDDDDDDNNNNNNNNNNNNNNNNNNNNNNNNNNNNNNNNNNNNNNNNNNNNNNNNNNNNDDDDDDDDDDDDDDDDDDDDDDDDDDDDDDDDDDD",
"DDDDDDDDDDDDDDDDDDDDDDDDDDDDDDDDDDDDDDDDDcNNNNNNNNNNNNNNNNNNNNNNNNNNNNNNNNNNNNNNNNNNNNNNNNNNNNBDDDDDDDDDDDDDDDDDDDDDDDDDDDDDDDDD",
"DDDDDDDDDDDDDDDDDDDDDDDDDDDDDDDDDDDDDDDDDuNNNNNNNNNNNNNNNNNNNNNNNNNNNNNNNNNNNNNNNNNNNNNNNNNNNNNNDDDDDDDDDDDDDDDDDDDDDDDDDDDDDDDD",
"DDDDDDDDDDDDDDDDDDDDDDDDDDDDDDDDDDDDDDDDDDNNNNNNNNNNNNNNNNNNNNNNNNNNNNNNNNNNNNNNNNNNNNNNNNNNNNNNNVDDDDDDDDDDDDDDDDDDDDDDDDDDDDDD",
"DDDDDDDDDDDDDDDDDDDDDDDDDDDDDDDDDDDDDDDDDDkNNNNNNNNNNNNNNNNNNNNNNNNNNNNNNNNNNNNNNNNNNNNNNNNNNNNNNvVDDDDDDDDDDDDDDDDDDDDDDDDDDDDD",
"DDDDDDDDDDDDDDDDDDDDDDDDDDDDDDDDDDDDDDDDDDqNNNNNNNNNNNNNNNNNNNNNNNNNNNNNNNNNNNNNvNNNNNNNNNNNNNNNNNNVDDDDDDDDDDDDDDDDDDDDDDDDDDDD",
"DDDDDDDDDDDDDDDDDDDDDDDDDDDDDDDDDDDDDDDDDDDnNNNNNNNNNNNNNNNNNNNNNNNNNNNNNNNNNNNNNNNNNNNNNNNNNNNNNNNNNDDDDDDDDDDDDDDDDDDDDDDDDDDD",
"DDDDDDDDDDDDDDDDDDDDDDDDDDNVDDDDDDDDDDDDDDDgNNNNNNNNNNNNNNNNNNNNNNNNNNNNNNNNNNNNNNNNNNNNNNNNNNNNNNNNNNADDDDDDDDDDDDDDDDDDDDDDDDD",
"DDDDDDDDDDDDDDDDDDDDDDDDDNNNDDDDDDDDDDDDDDD7NNNNNNNNNNNNNNNNNNNNNNNNNNNNNNNNNNNNNNNNNNNNNNNNNNNNNNNNNNNDDDDDDDDDDDDDDDDDDDDDDDDD",
"DDDDDDDDDDDDDDDDDDDDDDDDNNNNVDDDDDDDDDDDDDDDnNNNNNNNNNNNNNNNNNNNNvNNNNNNNNNNNNNNNNNNNNNNNNNNvNNNNNNvNNNDDDDDDDDDDDDDDDDDDDDDDDDD",
"DDDDDDDDDDDDDDDDDDDDDDDNNNNNBDDDDDDDDDDDDDDDpNNNNNNNNNNNNNNNNNNNNNNNNNNNNNNNNNNNNNNNNNNNNNNNNNNNNNNNNNNDDDDDDDDDDDDDDDDDDDDDDDDD",
"DDDDDDDDDDDDDDDDDDDDDDNNNNNNNDDDDDDDDDDDDDDD2NNNNNNNNNNNNNNNNNNNNNNNNNNNNNNNNNNNNNNNNNNNNNNNNNNNNNNNNNvDDDDDDDDDDDDDDDDDDDDDDDDD",
"DDDDDDDDDDDDDDDDDDDDDNNNNNNNNVDDDDDDDDDDDDDDDNNNNNNNNNNNNNNNNNNNNNNNNNNNNNNNNNNNNNNNNNNNNNNNNNNNNNNNNNsDDDDDDDDDDDDDDDDDDDDDDDDD",
"DDDDDDDDDDDDDDDDDDDDBNNNNNNNNBDDDDDDDDDDDDDDDiNNNNNNNNNNvNNNNNNNNNNNNNNNNNNNNNNNNNNNNNNNNNNNNNNNNNNNNvDDDDDDDDDDDDDDDDDDDDDDDDDD",
"DDDDDDDDDDDDDDDDDDDDNNNNNNNNNNDDDDDDDDDDDDDDDDNNNNNNNNNNNNNNNNNNNNNNNNNNNNNNNNNNNNNNNNNNNNNNNNNNNNNNNvDDDDDDDDDDDDDDDDDDDDDDDDDD",
"DDDDDDDDDDDDDDDDDDDNNNNNNNNNNNBDDDDDDDDDDDDDDDvNNNNNNNNNNNNNNNNNNNNNNNNNNNNNNNNNNNNNNNNNNNNNNNNNNNNNNrDDDDDDDDDDDDDDDDDDDDDDDDDD",
"DDDDDDDDDDDDDDDDDDNNNNNNNNNNNNBDDDDDDDDDDDDDDDuvNNNNNNNNNNNNNNNNNNNNNNNNNNNNNNNNNNNNNNNNNNNNNNNNNNNNNDDDDDDDDDDDDDDDDDDDDDDDDDDD",
"DDDDDDDDDDDDDDDDDDNNNNNNNNNNNNNDDDDDDDDDDDDDDDDNNNNNvNNNNNNNNNNNNNNNNNNNNNNNNNNNNNNNNNNNNNNNNNNNNNNNlDDDDDDDDDDDDDDDDDDDDDDDDDDD",
"DDDDDDDDDDDDDDDDDNNNNNNNNNNNNNNBDDDDDDDDDDDDDDDxNNNNNNNNNNNNNNNNNNNNNNNNNNNNNNNNNNNNNNNNNNNNNNNNNNNv6DDDDDDDDDDDDDDDDDDDDDDDDDDD",
"DDDDDDDDDDDDDDDDNNNNNNNNNNNNNNNNDDDDDDDDDDDDDDDeNNNNNNNNNNNNNNNNNNNNNNNNNNNNNNNNNNNNNNNNNNNNNNNNNNNNDDDDDDDDDDDDDDDDDDDDDDDDDDDD",
"DDDDDDDDDDDDDDDDNNNNNNNNNNNNNNNNBDDDDDDDDDDDDDDDnNNNNNNNNNNNNNNNNNNNNNNNNNNNNNNNNNNNNNNNNNNNNNNNNNvaDDDDDDDDDDDDDDDDDDDDDDDDDDDD",
"DDDDDDDDDDDDDDDNNNNNNNNNNNNNNNNNBDDDDDDDDDDDDDDDjNNNNNNNNNNNNNNNNNNNNNNNNNNNNNNNNNNNNNNNNNNNNNNNNNN3DDDDDDDDDDDDDDDDDDDDDDDDDDDD",
"DDDDDDDDDDDDDDDNNNNNNNNNNNNNNNNNNDDDDDDDDDDDDDDD0NNNNNNNNNNNNNNNNNNNNNNNNNNNNNNNNNNNNNNNNNNNNNNNNNNDDDDDDDDDDDDDDDDDDDDDDDDDDDDD",
"DDDDDDDDDDDDDDNNNNNNNNNNNNNNNNNNNmDDDDDDDDDDDDDDDNNNNNNNNNNNNNNNNNNNNNNNNNNNNNNNNNNNNNNNNNNNNNNNNNiDDDDDDDDDDDDDDDDDDDDDDDDDDDDD",
"DDDDDDDDDDDDDDNNNNNNNNNNNNNNNNNNNBDDDDDDDDDDDDDDDgNNNNNNNNNNNNNNNNNNNNNNNNNNNNNNNNNNNNNNNNNNNNNNNN>DDDDDDDDDDDDDDDVDDDDDDDDDDDDD",
"DDDDDDDDDDDDDNNNNNNNNNNNNNNNNNNNNNDDDDDDDDDDDDDDD7NNNNNNNNNNNNNNNNNNNNNNNNNNNNNNNNNNNNNNNNNNNNNNNvDDDDDDDDDDDDDDDVNDDDDDDDDDDDDD",
"DDDDDDDDDDDDDNNNNNNNNNNNNNNNNNNNNNBDDDDDDDDDDDDDDDnNNNNNNNNNNNNNNNNNNNNNNNNNNNNNNNNNNNNNNNNNNNNNNuDDDDDDDDDDDDDDDBNVDDDDDDDDDDDD",
"DDDDDDDDDDDDNNNNNNNNNNNNNNNNNNNNNNBDDDDDDDDDDDDDDDaNNNNNNNNNNNNNNNNNvNNNNNNNNNNNNNNNNNNNNNNNNNNNN&DDDDDDDDDDDDDDDNNBDDDDDDDDDDDD",
"DDDDDDDDDDDDNNNNNNNNNNNNNNNNNNNNNNNDDDDDDDDDDDDDDD4NNNNNNNNNNNNNNNNNNNNNNNNNNNNNNNNNNNNNNNNNNNNNjDDDDDDDDDDDDDDDBNNNDDDDDDDDDDDD",
"DDDDDDDDDDDDNNNNNNNNNNNNNNNNNNNNNNNBDDDDDDDDDDDDDDDnNNNNNNNNNNNNNNNNNNNNNNNNNNNNNNNNNNNNNNNNNNNNtDDDDDDDDDDDDDDDBNNNBDDDDDDDDDDD",
"DDDDDDDDDDDBNNNNNNNNNNNNNNNNNNNNNNNBDDDDDDDDDDDDDDDpNNNNNNNNNNNNNNNNNNNNNNNNNNNNNNNNNNNNNNNNNNNNDDDDDDDDDDDDDDDDNNNNBDDDDDDDDDDD",
"DDDDDDDDDDDNNNNNNNNNNNNNNNNNNNNNNNNNDDDDDDDDDDDDDDD<NNNNNNNNNNNNNNNNNNNNNNNNNNNNNNNNNNNNNNNNNNNjDDDDDDDDDDDDDDDBNNNNNDDDDDDDDDDD",
"DDDDDDDDDDDNNNNNNNNNNNNNNNNNNNNNNNNNBDDDDDDDDDDDDDDDcNNNNNNNNNNNNNNNNNNNNNNNNvNNNNNNNNNNNNNNNNN9DDDDDDDDDDDDDDDBNNNNNBDDDDDDDDDD",
"DDDDDDDDDDNNNNNNNNNNNNNNNNNNNNNNNNNNNDDDDDDDDDDDDDDDuNNNNNNNNNNNNNNNNNNNNNNNNNNNNNNNNNNNNNNNNNNDDDDDDDDDDDDDDDBNNNNNNBDDDDDDDDDD",
"DDDDDDDDDDNNNNNNNNNNNNNNNNNNNNNNNNNNNDDDDDDDDDDDDDDDDNNNNNNNNNNNNNNNNNNNNNNNNNNNNNNNNNNNNNNNNNgDDDDDDDDDDDDDDDVNNNNNNNDDDDDDDDDD",
"DDDDDDDDDDNNNNNNNNNNNNNNNNNNNNNNNNNNNBDDDDDDDDDDDDDDDcNNNNNNNNNNNNNNNNNNNNNNNNNNNNNNNNNNNNNNNN7DDDDDDDDDDDDDDDNNNNNNNNDDDDDDDDDD",
"DDDDDDDDDDNNNNNNNNNNNNNNNNNNNNNNNNNNNNDDDDDDDDDDDDDDDyNNNNNNNNNNNNNNNNNNNNNNNNNNNNNNNNNNNNNNNnDDDDDDDDDDDDDDDBNNNNNNNNnDDDDDDDDD",
"DDDDDDDDDvNNNNNNNNNNNNNNNNNNNNNNNNNNNNMDDDDDDDDDDDDDDDnNNNNNNNNNNNNNNNNNNNNNNNNNNNNNNNNNNNNNNaDDDDDDDDDDDDDDDBNNNNNNNNBDDDDDDDDD",
"DDDDDDDDDNNNNNNNNNNNNNNNNNNNNNNNNNNNNNBDDDDDDDDDDDDDDDhNNNNNNNNNNNNNNNNNNNNNNNNNNNNNNNNNNNNNN4DDDDDDDDDDDDDDDNNNNNNNNNNDDDDDDDDD",
"DDDDDDDDDNNNNNNNNNNNNNNNNNNNNNNNNNNNNNNDDDDDDDDDDDDDDD0NNNNNNNNNNNNNNNNNNNNNNNNNNNNNNNNNNNNNvDDDDDDDDDDDDDDDVNNNNNNNNNNDDDDDDDDD",
"DDDDDDDDDNNNNNNNNNNNNNNNNNNNNNNNNNNNNNNmDDDDDDDDDDDDDDDNNNNNNNNNNNNNNNNNNNNNNNNNNNNNNNNNNNNNpDDDDDDDDDDDDDDDBNNNNNNNNNNDDDDDDDDD",
"DDDDDDDDDNNNNNNNNNNNNNNNNNNNNNNNNNNNNNNBDDDDDDDDDDDDDDDgNNNNNNNNNNNNNNNNNNNNNNNNNNNNNNNNNNNN<DDDDDDDDDDDDDDDNNNNNNNNNNNDDDDDDDDD",
"DDDDDDDDDNNNNNNNNNNNNNNNNNNNNNNNNNNNNNNNDDDDDDDDDDDDDDD8NNNNNNNNNNNNNNNNNNNNNNNNNNNNNNNNNNNvDDDDDDDDDDDDDDDVNNNNNNNNNNNzDDDDDDDD",
"DDDDDDDDDNNNNNNNNNNNNNNNNNNNNNNNNNNNNNNNmDDDDDDDDDDDDDDDNNNNNNNNNNNNNNNNNNNNNNNNNNNNNNNNNNNuDDDDDDDDDDDDDDDNNNNNNNNNNNNhDDDDDDDD",
"DDDDDDDDDNNNNNNNNNNNNNNNNNNNNNNNNNNNNNNNNDDDDDDDDDDDDDDDaNNNNNNNNNNNNNNNNNNNNNvNNNNNNNNNNNN*DDDDDDDDDDDDDDDNNNNNNNNNNNNbDDDDDDDD",
"DDDDDDDDkNNNNNNNNNNNNNNNNNNNNNNNNNNNNNNNNDDDDDDDDDDDDDDD5NNNNNNNNNNNNNNNNNNNNNNNNNNNNNNNNNcDDDDDDDDDDDDDDDBNNNNNNNNNNNNnDDDDDDDD",
"DDDDDDDDcNNNNNNNNNNNNNNNNNNNNNNNNNNNNNNNNBDDDDDDDDDDDDDDDnNNNNNNNNNNNNNNNNNNNNNNNNNNNNNNNNtDDDDDDDDDDDDDDDBNNNNNNNNNNNNxDDDDDDDD",
"DDDDDDDDzNNNNNNNNNNNNNNNNjkkkjjjjjjjkkkccmDDDDDDDDDDDDDDDykkkjjjjjjjjjjkjjjjxxzzjjkjjjjjjkDDDDDDDDDDDDDDDDncckkkkjjjkkkgDDDDDDDD",
"DDDDDDDDjNNNNNNNNNNNNNNNgDDDDDDDDDDDDDDDDDDDDDDDDDDDDDDDDDDDDDDDDDDDDDDDDDDDDDDDDDDDDDDDDDDDDDDDDDDDDDDDDDDDDDDDDDDDDDDDDDDDDDDD",
"DDDDDDDDjNNNNNNNNNNNNNNNgDDDDDDDDDDDDDDDDDDDDDDDDDDDDDDDDDDDDDDDDDDDDDDDDDDDDDDDDDDDDDDDDDDDDDDDDDDDDDDDDDDDDDDDDDDDDDDDDDDDDDDD",
"DDDDDDDDfvNNNNNNNNNNNNNNkDDDDDDDDDDDDDDDDDDDDDDDDDDDDDDDDDDDDDDDDDDDDDDDDDDDDDDDDDDDDDDDDDDDDDDDDDDDDDDDDDDDDDDDDDDDDDDDDDDDDDDD",
"DDDDDDDDDNNNNNNNNNNNNNNNcDDDDDDDDDDDDDDDDDDDDDDDDDDDDDDDDDDDDDDDDDDDDDDDDDDDDDDDDDDDDDDDDDDDDDDDDDDDDDDDDDDDDDDDDDDDDDDDDDDDDDDD",
"DDDDDDDDDNNNNNNNNNNNNNNNkDDDDDDDDDDDDDDDDDDDDDDDDDDDDDDDDDDDDDDDDDDDDDDDDDDDDDDDDDDDDDDDDDDDDDDDDDDDDDDDDDDDDDDDDDDDDDDDDDDDDDDD",
"DDDDDDDDDNNNNNNNNNNNNNNNcDDDDDDDDDDDDDDDDDDDDDDDDDDDDDDDDDDDDDDDDDDDDDDDDDDDDDDDDDDDDDDDDDDDDDDDDDDDDDDDDDDDDDDDDDDDDDDDDDDDDDDD",
"DDDDDDDDDNNNNNNNNNNNNNNNbDDDDDDDDDDDDDDDDDDDDDDDDDDDDDDDDDDDDDDDDDDDDDDDDDDDDDDDDDDDDDDDDDDDDDDDDDDDDDDDDDDDDDDDDDDDDDDDDDDDDDDD",
"DDDDDDDDDNNNNNNNNNNNNNNNkDDDDDDDDDDDDDDDDDDDDDDDDDDDDDDDDDDDDDDDDDDDDDDDDDDDDDDDDDDDDDDDDDDDDDDDDDDDDDDDDDDDDDDDDDDDDDDDDDDDDDDD",
"DDDDDDDDDvNNNNNNNNNNNNNNbDDDDDDDDDDDDDDDDDDDDDDDDDDDDDDDDDDDDDDDDDDDDDDDDDDDDDDDDDDDDDDDDDDDDDDDDDDDDDDDDDDDDDDDDDDDDDDDDDDDDDDD",
"DDDDDDDDDgNNNNNNNNNNNNNNbDDDDDDDDDDDDDDDDDDDDDDDDDDDDDDDDDDDDDDDDDDDDDDDDDDDDDDDDDDDDDDDDDDDDDDDDDDDDDDDDDDDDDDDDDDDDDDDDDDDDDDD",
"DDDDDDDDDuNNNNNNNNNNNNNNbDDDDDDDDDDDDDDDDDDDDDDDDDDDDDDDDDDDDDDDDDDDDDDDDDDDDDDDDDDDDDDDDDDDDDDDDDDDDDDDDDDDDDDDDDDDDDDDDDDDDDDD",
"DDDDDDDDDDNNNNNNNNNNNNNNvDDDDDDDDDDDDDDDDDDDDDDDDDDDDDDDDDDDDDDDDDDDDDDDDDDDDDDDDDDDDDDDDDDDDDDDDDDDDDDDDDDDDDDDDDDDDDDDDDDDDDDD",
"DDDDDDDDDDNNNNNNNNNNNNNNVVZVZZZZZZZZZZZZZZZZZZADDDDDDDDDDDDDDDZZZZZZZZZZZZZZZZZZZZZZZSDDDDDDDDDDDDDDDZZZZZZZZZZZZZZCZZDDDDDDDDDD",
"DDDDDDDDDDzNNNNNNNNNNNNNNNNNNNNNNNNNNNNNNNNNNNBDDDDDDDDDDDDDDDVNNNNNNNNNNNNNNNNNNNNNNDDDDDDDDDDDDDDDZNNNNNNNNNNNNNNNNNDDDDDDDDDD",
"DDDDDDDDDDiNNNNNNNNNNNNNNNNNNNNNNNNNNNNNNNNNNNNDDDDDDDDDDDDDDDDNNNNNNNNNNNNNNNNNNNNNBDDDDDDDDDDDDDDDBNNNNNNNNNNNNNNNNBDDDDDDDDDD",
"DDDDDDDDDDDNNNNNNNNNNNNNNNNNNNNNNNNNNNNNNNNNNNNBDDDDDDDDDDDDDDDBNNNNNNNNNNNNNNNNNNNNgDDDDDDDDDDDDDDDNNNNNNNNNNNNNNNNNaDDDDDDDDDD",
"DDDDDDDDDDDvNNNNNNNNNNNNNNNNNNNNNNNNNNNNNNNNNNNBDDDDDDDDDDDDDDDhNNNNNNNNNNNNNNNNNNNNDDDDDDDDDDDDDDDBNNNNNNNNNNNNNNNNNDDDDDDDDDDD",
"DDDDDDDDDDDaNNNNNNNNNNNNNNNNNNNNNNNNNNNNNNNNNNNNVDDDDDDDDDDDDDDeNNNNNNNNNNNNNNNNNNNnDDDDDDDDDDDDDDDBNNNNNNNNNNNNNNNNvDDDDDDDDDDD",
"DDDDDDDDDDD3NNNNNNNNNNNNNNNNvNNNNNNNNNNNNNNNNNNNBDDDDDDDDDDDDDDDNNNNNNNNNNNNNNNNNNNaDDDDDDDDDDDDDDDNNNNNNNNNNNNNNNNNpDDDDDDDDDDD",
"DDDDDDDDDDDDvNNNNNNNNNNNNNNNNNNNNNNNNNNNNNNNNNNNNDDDDDDDDDDDDDDDgNNNNNNNNNNNNNNNNNNDDDDDDDDDDDDDDDBNNNNNNNNNNNNNNNNNDDDDDDDDDDDD",
"DDDDDDDDDDDDuvNNNNNNNNNNNNNNNNNNNNNNNNNNNNNNNNNNNBDDDDDDDDDDDDDD0NNNNNNNNNNNNNNNNNnDDDDDDDDDDDDDDDNNNNNNNNNNNNNNNNNjDDDDDDDDDDDD",
"DDDDDDDDDDDDDNNNNNNNNNNNNNNNNNNNNNNNNNNNNNNNNNNNNBDDDDDDDDDDDDDDDNNNNNNNNNNNNNNNNNuDDDDDDDDDDDDDDDNNNNNNNNNNNNNNNNN8DDDDDDDDDDDD",
"DDDDDDDDDDDDDsNNNNNNNNNNNNNNNNNNNNNNNNNNNNNNNNNNNNDDDDDDDDDDDDDDDdNNNNNNNNNNNNNNNN<DDDDDDDDDDDDDDVNNNNNNNNNNNNNNNNvDDDDDDDDDDDDD",
"DDDDDDDDDDDDD>NNNNNNNNNNNNNNNNNNNNNNNNNNNNNNNNNNNNBDDDDDDDDDDDDDD4NNNNNNNNNNNNNNNcDDDDDDDDDDDDDDDNNNNNNNNNNNNNNNNNrDDDDDDDDDDDDD",
"DDDDDDDDDDDDDDhNNNNNNNNNNNNNNNNNNNNNNNNNNNNNNNNNNNBDDDDDDDDDDDDDDDnNNNNNNNNNNNNNNuDDDDDDDDDDDDDDVNNNNNNNNvNNNNNNNvDDDDDDDDDDDDDD",
"DDDDDDDDDDDDDD1NNNNNNNNNNNNNNNNNNNNNNNNNNNNNNNNNNNNDDDDDDDDDDDDDDDaNNNNNNNNNNNNNN=DDDDDDDDDDDDDDVNNNNNNNNNNNNNNNNrDDDDDDDDDDDDDD",
"DDDDDDDDDDDDDDDsNNNNNNNNNNNNNNNNNNNNNNNNNNNNNNNNNNNBDDDDDDDDDDDDDD5NNNNNNNNNNNNNnDDDDDDDDDDDDDDDNNNNNNNNNNNNNNNNvDDDDDDDDDDDDDDD",
"DDDDDDDDDDDDDDD%NNNNNNNNNNNNNNNNNNNNNNNNNNNNNNvNNNNNDDDDDDDDDDDDDDDnNNNNNNNNNNNNyDDDDDDDDDDDDDDVNNNNNNNNNNNNNNNN8DDDDDDDDDDDDDDD",
"DDDDDDDDDDDDDDDDtNNNNNNNNNNNNNNNNNNNNNNNNNNNNNNNNNNNDDDDDDDDDDDDDDDaNNNNNNNNNNNN;DDDDDDDDDDDDDDBNNNNNNNNNNNNNNNhDDDDDDDDDDDDDDDD",
"DDDDDDDDDDDDDDDDDvNNNNNNNNNNNNNNNNNNNNNNNNNNNNNNNNNNBDDDDDDDDDDDDDD2NNNNNNNNNNNcDDDDDDDDDDDDDDDNNNNNNNNNNNNNNNN=DDDDDDDDDDDDDDDD",
"DDDDDDDDDDDDDDDDD,NNNNNNNNNNNNNNNNNNNNNNNNNNNNNNNNNNNDDDDDDDDDDDDDDDnNNNNNNNNNNuDDDDDDDDDDDDDDVNNNNNNNNNNNNNNNtDDDDDDDDDDDDDDDDD",
"DDDDDDDDDDDDDDDDDDpNNNNNNNNNNNNNNNNNNNNNNNNNNNNNNNNNNMDDDDDDDDDDDDDDpNNNNNNNNNN=DDDDDDDDDDDDDDBNNNNNNNNNNNNNNzDDDDDDDDDDDDDDDDDD",
"DDDDDDDDDDDDDDDDDDDcNNNNNNNNNNNNNNNNNNNNNNNNNNNNNNNNNBDDDDDDDDDDDDDD5NNNNNNNNNvDDDDDDDDDDDDDDDNNNNNNNNNNNNNNv*DDDDDDDDDDDDDDDDDD",
"DDDDDDDDDDDDDDDDDDD-vNNNNNNNNNNNNNNNNNNNNNNNNNNNNNNNNNDDDDDDDDDDDDDDDnNNNNNNNNuDDDDDDDDDDDDDDBNNNNNNNNNNNNNN9DDDDDDDDDDDDDDDDDDD",
"DDDDDDDDDDDDDDDDDDDD9NNNNNNNNNNNNNNNNNNNNNNNNNNNNNNNNNBDDDDDDDDDDDDDDdNNNNNNNN>DDDDDDDDDDDDDDBNNNNNNNNNNNNNpDDDDDDDDDDDDDDDDDDDD",
"DDDDDDDDDDDDDDDDDDDDDuNNNNNNNNNNNNNNNNNNNNNNNNNNNNNNNNNDDDDDDDDDDDDDD4NNNNNNNvDDDDDDDDDDDDDDDNNNNNNNNNNNNNhDDDDDDDDDDDDDDDDDDDDD",
"DDDDDDDDDDDDDDDDDDDDDDpNNNNNNNNNNNNNNNNNNNNNNNNNNNNNNNNDDDDDDDDDDDDDDDnNNNNNNpDDDDDDDDDDDDDDBNNNNNNNNNNNNc.DDDDDDDDDDDDDDDDDDDDD",
"DDDDDDDDDDDDDDDDDDDDDDDkNNNNNNNNNNNNNNNNNNvNNNNNNNNNNNNBDDDDDDDDDDDDDDgNNNNNN4DDDDDDDDDDDDDDNNNNNNNNNNNNv%DDDDDDDDDDDDDDDDDDDDDD",
"DDDDDDDDDDDDDDDDDDDDDDD.zNNNNNNNNNNNNNNNNNNNNNNNNNNNNNNBDDDDDDDDDDDDDD0NNNNNnDDDDDDDDDDDDDDDNNNNNNNNNNNv$DDDDDDDDDDDDDDDDDDDDDDD",
"DDDDDDDDDDDDDDDDDDDDDDDD.jNNNNNNNNNNNNNNNNNNNNNNNNNNNNNNDDDDDDDDDDDDDDDNNNNNgDDDDDDDDDDDDDDVNNNNNNNNNNv$DDDDDDDDDDDDDDDDDDDDDDDD",
"DDDDDDDDDDDDDDDDDDDDDDDDD.jNNNNNNNNNNNNNNNNNNNNNNNNNNNNNBDDDDDDDDDDDDDDcNNNNwDDDDDDDDDDDDDDNNNNNNNNNNv$DDDDDDDDDDDDDDDDDDDDDDDDD",
"DDDDDDDDDDDDDDDDDDDDDDDDDDDiNNNNNNNNNNNNNNNNNNNNNNNNNNNNNDDDDDDDDDDDDDDpNNNNDDDDDDDDDDDDDDVNNNNNNNNNx+DDDDDDDDDDDDDDDDDDDDDDDDDD",
"DDDDDDDDDDDDDDDDDDDDDDDDDDDDyNNNNNNNNNNNNNNNNNNNNNNNNNNNNVDDDDDDDDDDDDD6NNNcDDDDDDDDDDDDDDBNNNNNNNNg.DDDDDDDDDDDDDDDDDDDDDDDDDDD",
"DDDDDDDDDDDDDDDDDDDDDDDDDDDDD6vNNNNNNNNNNNNNNNNNNNNNNNNNNBDDDDDDDDDDDDDDNNNpDDDDDDDDDDDDDDNNNNNNNNuDDDDDDDDDDDDDDDDDDDDDDDDDDDDD",
"DDDDDDDDDDDDDDDDDDDDDDDDDDDDDD+lNNNNNNNNNNNNNNNNNNNNNNNNNNDDDDDDDDDDDDDDjNN8DDDDDDDDDDDDDVNNNNNNv3DDDDDDDDDDDDDDDDDDDDDDDDDDDDDD",
"DDDDDDDDDDDDDDDDDDDDDDDDDDDDDDDDuNNNNNNNNNNNNNNNNNNNNNNNNNBDDDDDDDDDDDDDiNBDDDDDDDDDDDDDDBNNNNNgODDDDDDDDDDDDDDDDDDDDDDDDDDDDDDD",
"DDDDDDDDDDDDDDDDDDDDDDDDDDDDDDDDD:cNNNNNNNNNNNNNNNNNNNNNNNBDDDDDDDDDDDDDDNcDDDDDDDDDDDDDDNNNNv9DDDDDDDDDDDDDDDDDDDDDDDDDDDDDDDDD",
"DDDDDDDDDDDDDDDDDDDDDDDDDDDDDDDDDDDrNNNNNNNNNNNNNNNNNNNNNNNDDDDDDDDDDDDDDBaDDDDDDDDDDDDDVNNNdoDDDDDDDDDDDDDDDDDDDDDDDDDDDDDDDDDD",
"DDDDDDDDDDDDDDDDDDDDDDDDDDDDDDDDDDDDOpNNNNNNNNNNNNNNNNNNNNNBDDDDDDDDDDDDDcqDDDDDDDDDDDDDBNz1DDDDDDDDDDDDDDDDDDDDDDDDDDDDDDDDDDDD",
"DDDDDDDDDDDDDDDDDDDDDDDDDDDDDDDDDDDDDD=sNNvNNNNNNNNNNNNNNNNBDDDDDDDDDDDDDaDDDDDDDDDDDDDDv7DDDDDDDDDDDDDDDDDDDDDDDDDDDDDDDDDDDDDD",
"DDDDDDDDDDDDDDDDDDDDDDDDDDDDDDDDDDDDDDDD*pNNNNNNNNNNNNNNNNNNDDDDDDDDDDDDDDDDDDDDDDDDDDDDDDDDDDDDDDDDDDDDDDDDDDDDDDDDDDDDDDDDDDDD",
"DDDDDDDDDDDDDDDDDDDDDDDDDDDDDDDDDDDDDDDDDDXwzNNNNNNNNNNNNNNNVDDDDDDDDDDDDDDDDDDDDDDDDDDDDDDDDDDDDDDDDDDDDDDDDDDDDDDDDDDDDDDDDDDD",
"DDDDDDDDDDDDDDDDDDDDDDDDDDDDDDDDDDDDDDDDDDDDD=ivNNNNNNNNNNNNBDDDDDDDDDDDDDDDDDDDDDDDDDDDDDDDDDDDDDDDDDDDDDDDDDDDDDDDDDDDDDDDDDDD",
"DDDDDDDDDDDDDDDDDDDDDDDDDDDDDDDDDDDDDDDDDDDDDDDD%rgvNNvNNNNNNDDDDDDDDDDDDDDDDDDDDDDDDDDDDDDDDDDDDDDDDDDDDDDDDDDDDDDDDDDDDDDDDDDD",
"DDDDDDDDDDDDDDDDDDDDDDDDDDDDDDDDDDDDDDDDDDDDDDDDDDD *8uhnNNNNBDDDDDDDDDDDDDDDDDDDDDDDDDDDDDDDDDDDDDDDDDDDDDDDDDDDDDDDDDDDDDDDDDD",
"DDDDDDDDDDDDDDDDDDDDDDDDDDDDDDDDDDDDDDDDDDDDDDDDDDDDDDDDDD#-1fDDDDDDDDDDDDDDDDDDDDDDDDDDDDDDDDDDDDDDDDDDDDDDDDDDDDDDDDDDDDDDDDDD",
"DDDDDDDDDDDDDDDDDDDDDDDDDDDDDDDDDDDDDDDDDDDDDDDDDDDDDDDDDDDDDDDDDDDDDDDDDDDDDDDDDDDDDDDDDDDDDDDDDDDDDDDDDDDDDDDDDDDDDDDDDDDDDDDD",
"DDDDDDDDDDDDDDDDDDDDDDDDDDDDDDDDDDDDDDDDDDDDDDDDDDDDDDDDDDDDDDDDDDDDDDDDDDDDDDDDDDDDDDDDDDDDDDDDDDDDDDDDDDDDDDDDDDDDDDDDDDDDDDDD",
"DDDDDDDDDDDDDDDDDDDDDDDDDDDDDDDDDDDDDDDDDDDDDDDDDDDDDDDDDDDDDDDDDDDDDDDDDDDDDDDDDDDDDDDDDDDDDDDDDDDDDDDDDDDDDDDDDDDDDDDDDDDDDDDD",
"DDDDDDDDDDDDDDDDDDDDDDDDDDDDDDDDDDDDDDDDDDDDDDDDDDDDDDDDDDDDDDDDDDDDDDDDDDDDDDDDDDDDDDDDDDDDDDDDDDDDDDDDDDDDDDDDDDDDDDDDDDDDDDDD",
"DDDDDDDDDDDDDDDDDDDDDDDDDDDDDDDDDDDDDDDDDDDDDDDDDDDDDDDDDDDDDDDDDDDDDDDDDDDDDDDDDDDDDDDDDDDDDDDDDDDDDDDDDDDDDDDDDDDDDDDDDDDDDDDD",
"DDDDDDDDDDDDDDDDDDDDDDDDDDDDDDDDDDDDDDDDDDDDDDDDDDDDDDDDDDDDDDDDDDDDDDDDDDDDDDDDDDDDDDDDDDDDDDDDDDDDDDDDDDDDDDDDDDDDDDDDDDDDDDDD",
"DDDDDDDDDDDDDDDDDDDDDDDDDDDDDDDDDDDDDDDDDDDDDDDDDDDDDDDDDDDDDDDDDDDDDDDDDDDDDDDDDDDDDDDDDDDDDDDDDDDDDDDDDDDDDDDDDDDDDDDDDDDDDDDD",
"DDDDDDDDDDDDDDDDDDDDDDDDDDDDDDDDDDDDDDDDDDDDDDDDDDDDDDDDDDDDDDDDDDDDDDDDDDDDDDDDDDDDDDDDDDDDDDDDDDDDDDDDDDDDDDDDDDDDDDDDDDDDDDDD",
"DDDDDDDDDDDDDDDDDDDDDDDDDDDDDDDDDDDDDDDDDDDDDDDDDDDDDDDDDDDDDDDDDDDDDDDDDDDDDDDDDDDDDDDDDDDDDDDDDDDDDDDDDDDDDDDDDDDDDDDDDDDDDDDD",
"DDDDDDDDDDDDDDDDDDDDDDDDDDDDDDDDDDDDDDDDDDDDDDDDDDDDDDDDDDDDDDDDDDDDDDDDDDDDDDDDDDDDDDDDDDDDDDDDDDDDDDDDDDDDDDDDDDDDDDDDDDDDDDDD",
"DDDDDDDDDDDDDDDDDDDDDDDDDDDDDDDDDDDDDDDDDDDDDDDDDDDDDDDDDDDDDDDDDDDDDDDDDDDDDDDDDDDDDDDDDDDDDDDDDDDDDDDDDDDDDDDDDDDDDDDDDDDDDDDD"
};
