/* XPM */
static char *result[] = {
/* columns rows colors chars-per-pixel */
"64 64 148 2 ",
"   c #203522",
".  c #213623",
"X  c #213723",
"o  c #233A26",
"O  c #253E28",
"+  c #254129",
"@  c #2D4C31",
"#  c #305134",
"$  c #325236",
"%  c #325536",
"&  c #345939",
"*  c #3C6941",
"=  c #3D6943",
"-  c #3F6D45",
";  c #406B45",
":  c #44734A",
">  c #45764B",
",  c #48794E",
"<  c #487A4F",
"1  c #497B4F",
"2  c #497C4F",
"3  c #497C50",
"4  c #4A7D50",
"5  c #4B7C51",
"6  c #4B7F51",
"7  c #4A8251",
"8  c #4C8153",
"9  c #4C8453",
"0  c #4D8654",
"q  c #508957",
"w  c #528C59",
"e  c #538E5A",
"r  c #538F5A",
"t  c #548E5B",
"y  c #558F5D",
"u  c #53925B",
"i  c #53935B",
"p  c #54915C",
"a  c #55935D",
"s  c #55945D",
"d  c #57975F",
"f  c #57985F",
"g  c #599461",
"h  c #5B9763",
"j  c #599B61",
"k  c #599B62",
"l  c #599C62",
"z  c #5A9C63",
"x  c #5CA065",
"c  c #5DA166",
"v  c #5EA366",
"b  c #5EA467",
"n  c #5EA567",
"m  c #5FA768",
"M  c #5FA968",
"N  c #60A469",
"B  c #60A769",
"V  c #60A969",
"C  c #61AA6A",
"Z  c #62AC6C",
"A  c #62AD6C",
"S  c #63AD6C",
"D  c #62AE6C",
"F  c #64B16E",
"G  c #65B16E",
"H  c #66B36F",
"J  c #66B470",
"K  c #67B671",
"L  c #69B873",
"P  c #69B973",
"I  c #69BA73",
"U  c #69B974",
"Y  c #6ABC74",
"T  c #6ABC75",
"R  c #6BBD75",
"E  c #6CBE76",
"W  c #6CBF76",
"Q  c #6CBF77",
"!  c #6DBF77",
"~  c #6CC077",
"^  c #6CC277",
"/  c #6DC277",
"(  c #6FC57A",
")  c #6FC67A",
"_  c #70C57A",
"`  c #70C77B",
"'  c #74C47E",
"]  c #70C87B",
"[  c #71C97C",
"{  c #72C87D",
"}  c #72C97D",
"|  c #71CA7C",
" . c #71CB7C",
".. c #72CA7D",
"X. c #72CB7D",
"o. c #73CB7E",
"O. c #71CC7C",
"+. c #72CC7D",
"@. c #72CC7E",
"#. c #73CD7E",
"$. c #73CD7F",
"%. c #73CE7E",
"&. c #73CE7F",
"*. c #73CF7F",
"=. c #74CD7F",
"-. c #74CE7F",
";. c #74CF7F",
":. c #74D07F",
">. c #76C680",
",. c #75CC80",
"<. c #74CF80",
"1. c #76CF81",
"2. c #77CE82",
"3. c #76CF82",
"4. c #77CF82",
"5. c #74D180",
"6. c #75D180",
"7. c #74D280",
"8. c #75D280",
"9. c #75D281",
"0. c #75D381",
"q. c #76D381",
"w. c #77D082",
"e. c #77D182",
"r. c #77D282",
"t. c #76D382",
"y. c #77D382",
"u. c #77D283",
"i. c #77D383",
"p. c #75D481",
"a. c #76D481",
"s. c #76D482",
"d. c #77D482",
"f. c #77D483",
"g. c #77D583",
"h. c #78D483",
"j. c #78D583",
"k. c #78D384",
"l. c #79D384",
"z. c #79D385",
"x. c #78D484",
"c. c #78D584",
"v. c #79D584",
"b. c #7AD485",
"n. c #7AD585",
"m. c #7AD685",
"M. c #7AD586",
"N. c None",
/* pixels */
"N.N.N.N.N.N.N.N.N.N.N.N.N.N.N.N.N.N.N.N.N.N.N.N.N.N.N.N.N.N.N.N.N.N.N.N.N.N.N.N.N.N.N.N.N.N.N.N.N.N.N.N.N.N.N.N.N.N.N.N.N.N.N.N.",
"N.N.N.N.N.N.N.N.N.N.N.N.N.N.N.N.N.N.N.N.N.N.N.N.N.N.N.N.N.N.N.N.N.N.N.N.N.N.N.N.N.N.N.N.N.N.N.N.N.N.N.N.N.N.N.N.N.N.N.N.N.N.N.N.",
"N.N.N.N.N.N.N.N.N.N.N.N.N.N.N.N.N.N.N.N.N.N.N.N.N.N.N.N.N.N.N.N.N.N.N.N.N.N.N.N.N.N.N.N.N.N.N.N.N.N.N.N.N.N.N.N.N.N.N.N.N.N.N.N.",
"N.N.N.N.N.N.N.N.N.N.N.N.N.N.N.N.N.N.N.N.N.N.N.N.N.s.s.p.p.p.p.p.p.p.p.p.p.d.g.N.N.N.N.N.N.N.N.N.N.N.N.N.N.N.N.N.N.N.N.N.N.N.N.N.",
"N.N.N.N.N.N.N.N.N.N.N.N.N.N.N.N.N.N.N.N.N.N.s.p.p.p.p.p.p.p.p.p.p.p.p.p.p.p.p.p.p.g.N.N.N.N.N.N.N.N.N.N.N.N.N.N.N.N.N.N.N.N.N.N.",
"N.N.N.N.N.N.N.N.N.N.N.N.N.N.N.N.N.N.N.N.j.p.p.p.p.p.p.p.p.p.p.p.p.p.p.p.p.p.p.p.p.p.p.s.m.N.N.N.N.N.N.N.N.N.N.N.N.N.N.N.N.N.N.N.",
"N.N.N.N.N.N.N.N.N.N.N.N.N.N.N.N.N.N.N.N.{ p.p.p.p.p.p.p.p.p.p.p.p.p.p.p.p.p.p.p.p.p.p.p.p.s.N.N.N.N.N.N.N.N.N.N.N.N.N.N.N.N.N.N.",
"N.N.N.N.N.N.N.N.N.N.N.N.N.N.N.N.N.N.N.N.N.p.p.p.p.p.p.p.p.p.p.p.p.p.p.p.p.p.p.p.p.p.p.p.p.p.p.j.N.N.N.N.N.N.N.N.N.N.N.N.N.N.N.N.",
"N.N.N.N.N.N.N.N.N.N.N.N.N.N.N.N.N.N.N.N.N.-.p.p.p.p.p.p.p.p.p.p.p.p.p.p.p.p.p.p.p.p.p.p.p.p.p.p.s.N.N.N.N.N.N.N.N.N.N.N.N.N.N.N.",
"N.N.N.N.N.N.N.N.N.N.N.N.N.N.N.N.N.N.N.N.N.S p.p.p.p.p.p.p.p.p.p.p.p.p.p.p.p.p.p.p.p.p.p.p.p.p.p.p.s.N.N.N.N.N.N.N.N.N.N.N.N.N.N.",
"N.N.N.N.N.N.N.N.N.N.N.N.N.g.N.N.N.N.N.N.N.N.p.p.p.p.p.p.p.p.p.p.p.p.p.p.p.p.p.p.p.p.p.p.p.p.p.p.p.p.p.M.N.N.N.N.N.N.N.N.N.N.N.N.",
"N.N.N.N.N.N.N.N.N.N.N.N.p.p.N.N.N.N.N.N.N.N.[ p.p.p.p.p.p.p.p.p.p.p.p.p.p.p.p.p.p.p.p.p.p.p.p.p.p.p.p.1.N.N.N.N.N.N.N.N.N.N.N.N.",
"N.N.N.N.N.N.N.N.N.N.N.p.p.p.x.N.N.N.N.N.N.N.v p.p.p.p.p.p.p.p.p.p.p.p.p.p.p.p.p.p.p.p.p.p.p.p.p.p.p.p.N.N.N.N.N.N.N.N.N.N.N.N.N.",
"N.N.N.N.N.N.N.N.N.N.p.p.p.p.s.N.N.N.N.N.N.N.N.p.p.p.p.p.p.p.p.p.p.p.p.p.p.p.p.p.p.p.p.p.p.p.p.p.p.p.;.N.N.N.N.N.N.N.N.N.N.N.N.N.",
"N.N.N.N.N.N.N.N.N.s.p.p.p.p.p.N.N.N.N.N.N.N.N.( p.p.p.p.p.p.p.p.p.p.p.p.p.p.p.p.p.p.p.p.p.p.p.p.p.p.C N.N.N.N.N.N.N.N.N.N.N.N.N.",
"N.N.N.N.N.N.N.N.N.p.p.p.p.p.p.i.N.N.N.N.N.N.N.j p.p.p.p.p.p.p.p.p.p.p.p.p.p.p.p.p.p.p.p.p.p.p.p.p.p.; N.N.N.N.N.N.N.N.N.N.N.N.N.",
"N.N.N.N.N.N.N.N.p.p.p.p.p.p.p.p.N.N.N.N.N.N.N.N.0.p.p.p.p.p.p.p.p.p.p.p.p.p.p.p.p.p.p.p.p.p.p.p.p.| N.N.N.N.N.N.N.N.N.N.N.N.N.N.",
"N.N.N.N.N.N.N.s.p.p.p.p.p.p.p.p.2.N.N.N.N.N.N.N.Q p.p.p.p.p.p.p.p.p.p.p.p.p.p.p.p.p.p.p.p.p.p.p.p.x N.N.N.N.N.N.N.N.N.N.N.N.N.N.",
"N.N.N.N.N.N.N.p.p.p.p.p.p.p.p.p.i.N.N.N.N.N.N.N.a p.p.p.p.p.p.p.p.p.p.p.p.p.p.p.p.p.p.p.p.p.p.p.p.N.N.N.N.N.N.N.N.N.N.N.N.N.N.N.",
"N.N.N.N.N.N.q.p.p.p.p.p.p.p.p.p.p.N.N.N.N.N.N.N.N.0.p.p.p.p.p.p.p.p.p.p.p.p.p.p.p.p.p.p.p.p.p.p.( N.N.N.N.N.N.N.N.c.N.N.N.N.N.N.",
"N.N.N.N.N.N.p.p.p.p.p.p.p.p.p.p.p.4.N.N.N.N.N.N.N.P p.p.p.p.p.p.p.p.p.p.p.p.p.p.p.p.p.p.p.p.p.p.d N.N.N.N.N.N.N.v.s.N.N.N.N.N.N.",
"N.N.N.N.N.N.p.p.p.p.p.p.p.p.p.p.p.f.N.N.N.N.N.N.N.q p.p.p.p.p.p.p.p.p.p.p.p.p.p.p.p.p.p.p.p.p.p.N.N.N.N.N.N.N.N.s.p.N.N.N.N.N.N.",
"N.N.N.N.N.9.p.p.p.p.p.p.p.p.p.p.p.p.N.N.N.N.N.N.N.N.6.p.p.p.p.p.p.p.p.p.p.p.p.p.p.p.p.p.p.p.p.W N.N.N.N.N.N.N.N.p.p.y.N.N.N.N.N.",
"N.N.N.N.N.0.p.p.p.p.p.p.p.p.p.p.p.p.w.N.N.N.N.N.N.N.H p.p.p.p.p.p.p.p.p.p.p.p.p.p.p.p.p.p.p.p.r N.N.N.N.N.N.N.x.p.p.s.N.N.N.N.N.",
"N.N.N.N.N.p.p.p.p.p.p.p.p.p.p.p.p.p.s.N.N.N.N.N.N.N.6 p.p.p.p.p.p.p.p.p.p.p.p.p.p.p.p.p.p.p.0.N.N.N.N.N.N.N.N.p.p.p.p.N.N.N.N.N.",
"N.N.N.N.N.p.p.p.p.p.p.p.p.p.p.p.p.p.p.N.N.N.N.N.N.N.N.&.p.p.p.p.p.p.p.p.p.p.p.p.p.p.p.p.p.p.L N.N.N.N.N.N.N.l.p.p.p.p.N.N.N.N.N.",
"N.N.N.N.N.p.p.p.p.p.p.p.p.p.p.p.p.p.p.e.N.N.N.N.N.N.N.Z p.p.p.p.p.p.p.p.p.p.p.p.p.p.p.p.p.p.9 N.N.N.N.N.N.N.f.p.p.p.p.[ N.N.N.N.",
"N.N.N.N.@.p.p.p.p.p.p.p.p.p.p.p.p.p.p.s.N.N.N.N.N.N.N.N.p.p.p.p.p.p.p.p.p.p.p.p.p.p.p.p.p.6.N.N.N.N.N.N.N.N.p.p.p.p.p.o.N.N.N.N.",
"N.N.N.N.O.p.p.p.p.p.p.p.p.p.p.p.p.p.p.p.N.N.N.N.N.N.N.N.X.p.p.p.p.p.p.p.p.p.p.p.p.p.p.p.p.G N.N.N.N.N.N.N.k.p.p.p.p.p.$.N.N.N.N.",
"N.N.N.N.=.p.p.p.p.p.p.p.p.p.p.p.p.p.p.p.u.N.N.N.N.N.N.N.n p.p.p.p.p.p.p.p.p.p.p.p.p.p.p.p., N.N.N.N.N.N.N.d.p.p.p.p.p.<.N.N.N.N.",
"N.N.N.N.+.p.p.p.p.p.p.p.N < < < < < 2 6 y N.N.N.N.N.N.N.N.2 < < < < < < < < < < < < < < 1 N.N.N.N.N.N.N.N.t 8 4 1 < 3 4 N.N.N.N.",
"N.N.N.N.} p.p.p.p.p.p.p.5 N.N.N.N.N.N.N.N.N.N.N.N.N.N.N.N.N.N.N.N.N.N.N.N.N.N.N.N.N.N.N.N.N.N.N.N.N.N.N.N.N.N.N.N.N.N.N.N.N.N.N.",
"N.N.N.N.^ p.p.p.p.p.p.p.g N.N.N.N.N.N.N.N.N.N.N.N.N.N.N.N.N.N.N.N.N.N.N.N.N.N.N.N.N.N.N.N.N.N.N.N.N.N.N.N.N.N.N.N.N.N.N.N.N.N.N.",
"N.N.N.N.Y p.p.p.p.p.p.p.h N.N.N.N.N.N.N.N.N.N.N.N.N.N.N.N.N.N.N.N.N.N.N.N.N.N.N.N.N.N.N.N.N.N.N.N.N.N.N.N.N.N.N.N.N.N.N.N.N.N.N.",
"N.N.N.N.A p.p.p.p.p.p.p.N.N.N.N.N.N.N.N.N.N.N.N.N.N.N.N.N.N.N.N.N.N.N.N.N.N.N.N.N.N.N.N.N.N.N.N.N.N.N.N.N.N.N.N.N.N.N.N.N.N.N.N.",
"N.N.N.N.N.p.p.p.p.p.p.p.N.N.N.N.N.N.N.N.N.N.N.N.N.N.N.N.N.N.N.N.N.N.N.N.N.N.N.N.N.N.N.N.N.N.N.N.N.N.N.N.N.N.N.N.N.N.N.N.N.N.N.N.",
"N.N.N.N.N.p.p.p.p.p.p.p.' >.N.N.N.N.N.N.N.N.N.N.N.N.N.N.N.N.N.N.N.N.N.N.N.N.N.N.N.N.N.N.N.N.N.N.N.N.N.N.N.N.N.N.N.N.N.N.N.N.N.N.",
"N.N.N.N.N.) p.p.p.p.p.p.p.p.p.p.p.p.p.p.p.p.p.n.N.N.N.N.N.N.N.e.p.p.p.p.p.p.p.p.p.p.,.N.N.N.N.N.N.N.c.p.p.p.p.p.p.p.t.N.N.N.N.N.",
"N.N.N.N.N.M p.p.p.p.p.p.p.p.p.p.p.p.p.p.p.p.p.f.N.N.N.N.N.N.N.B p.p.p.p.p.p.p.p.p.p.N.N.N.N.N.N.N.N.p.p.p.p.p.p.p.p.R N.N.N.N.N.",
"N.N.N.N.N.N.p.p.p.p.p.p.p.p.p.p.p.p.p.p.p.p.p.p.N.N.N.N.N.N.N.N.0.p.p.p.p.p.p.p.p...N.N.N.N.N.N.N.b.p.p.p.p.p.p.p.p.p N.N.N.N.N.",
"N.N.N.N.N.N.) p.p.p.p.p.p.p.p.p.p.p.p.p.p.p.p.p.u.N.N.N.N.N.N.N.! p.p.p.p.p.p.p.p.b N.N.N.N.N.N.N.f.p.p.p.p.p.p.p.*.N.N.N.N.N.N.",
"N.N.N.N.N.N.u p.p.p.p.p.p.p.p.p.p.p.p.p.p.p.p.p.s.N.N.N.N.N.N.N.a p.p.p.p.p.p.p.p.N.N.N.N.N.N.N.N.p.p.p.p.p.p.p.p.n N.N.N.N.N.N.",
"N.N.N.N.N.N.N.&.p.p.p.p.p.p.p.p.p.p.p.p.p.p.p.p.p.N.N.N.N.N.N.N.N.9.p.p.p.p.p.p._ N.N.N.N.N.N.N.k.p.p.p.p.p.p.p.8.N.N.N.N.N.N.N.",
"N.N.N.N.N.N.N.s p.p.p.p.p.p.p.p.p.p.p.p.p.p.p.p.p.r.N.N.N.N.N.N.N.U p.p.p.p.p.p.k N.N.N.N.N.N.N.d.p.p.p.p.p.p.p.n N.N.N.N.N.N.N.",
"N.N.N.N.N.N.N.N.] p.p.p.p.p.p.p.p.p.p.p.p.p.p.p.p.a.N.N.N.N.N.N.N.w p.p.p.p.p.p.N.N.N.N.N.N.N.N.p.p.p.p.p.p.p.%.N.N.N.N.N.N.N.N.",
"N.N.N.N.N.N.N.N.- p.p.p.p.p.p.p.p.p.p.p.p.p.p.p.p.p.2.N.N.N.N.N.N.N.9.p.p.p.p.( N.N.N.N.N.N.N.x.p.p.p.p.p.p.p.9 N.N.N.N.N.N.N.N.",
"N.N.N.N.N.N.N.N.N.m p.p.p.p.p.p.p.p.p.p.p.p.p.p.p.p.i.N.N.N.N.N.N.N.P p.p.p.p.l N.N.N.N.N.N.N.s.p.p.p.p.p.p.K N.N.N.N.N.N.N.N.N.",
"N.N.N.N.N.N.N.N.N.N./ p.p.p.p.p.p.p.p.p.p.p.p.p.p.p.p.N.N.N.N.N.N.N.e p.p.p.p.N.N.N.N.N.N.N.N.p.p.p.p.p.p.| N.N.N.N.N.N.N.N.N.N.",
"N.N.N.N.N.N.N.N.N.N.o  .p.p.p.p.p.p.p.p.p.p.p.p.p.p.p.3.N.N.N.N.N.N.N.0.p.p.` N.N.N.N.N.N.N.x.p.p.p.p.p.:.# N.N.N.N.N.N.N.N.N.N.",
"N.N.N.N.N.N.N.N.N.N.N.$ *.p.p.p.p.p.p.p.p.p.p.p.p.p.p.f.N.N.N.N.N.N.N.E p.p.v N.N.N.N.N.N.N.a.p.p.p.p.7.= N.N.N.N.N.N.N.N.N.N.N.",
"N.N.N.N.N.N.N.N.N.N.N.N.% -.p.p.p.p.p.p.p.p.p.p.p.p.p.p.N.N.N.N.N.N.N.x p.p.: N.N.N.N.N.N.z.p.p.p.p.9.* N.N.N.N.N.N.N.N.N.N.N.N.",
"N.N.N.N.N.N.N.N.N.N.N.N.N.+ ` p.p.p.p.p.p.p.p.p.p.p.p.p.e.N.N.N.N.N.N.N.p.6.N.N.N.N.N.N.N.h.p.p.p.#.& N.N.N.N.N.N.N.N.N.N.N.N.N.",
"N.N.N.N.N.N.N.N.N.N.N.N.N.N.N.J p.p.p.p.p.p.p.p.p.p.p.p.s.N.N.N.N.N.N.N.-.I N.N.N.N.N.N.N.p.p.p.~ X N.N.N.N.N.N.N.N.N.N.N.N.N.N.",
"N.N.N.N.N.N.N.N.N.N.N.N.N.N.N.N.0 5.p.p.p.p.p.p.p.p.p.p.p.N.N.N.N.N.N.N.U z N.N.N.N.N.N.l.p.0.f N.N.N.N.N.N.N.N.N.N.N.N.N.N.N.N.",
"N.N.N.N.N.N.N.N.N.N.N.N.N.N.N.N.N.  D p.p.p.p.p.p.p.p.p.p.u.N.N.N.N.N.N.c N.N.N.N.N.N.N.f.T @ N.N.N.N.N.N.N.N.N.N.N.N.N.N.N.N.N.",
"N.N.N.N.N.N.N.N.N.N.N.N.N.N.N.N.N.N.N.# F 0.p.p.p.p.p.p.p.s.N.N.N.N.N.N.N.N.N.N.N.N.N.N.> N.N.N.N.N.N.N.N.N.N.N.N.N.N.N.N.N.N.N.",
"N.N.N.N.N.N.N.N.N.N.N.N.N.N.N.N.N.N.N.N.N.. i ) p.p.p.p.p.p.N.N.N.N.N.N.N.N.N.N.N.N.N.N.N.N.N.N.N.N.N.N.N.N.N.N.N.N.N.N.N.N.N.N.",
"N.N.N.N.N.N.N.N.N.N.N.N.N.N.N.N.N.N.N.N.N.N.N.N.O 7 V ^ 9.p.i.N.N.N.N.N.N.N.N.N.N.N.N.N.N.N.N.N.N.N.N.N.N.N.N.N.N.N.N.N.N.N.N.N.",
"N.N.N.N.N.N.N.N.N.N.N.N.N.N.N.N.N.N.N.N.N.N.N.N.N.N.N.N.N.N.N.N.N.N.N.N.N.N.N.N.N.N.N.N.N.N.N.N.N.N.N.N.N.N.N.N.N.N.N.N.N.N.N.N.",
"N.N.N.N.N.N.N.N.N.N.N.N.N.N.N.N.N.N.N.N.N.N.N.N.N.N.N.N.N.N.N.N.N.N.N.N.N.N.N.N.N.N.N.N.N.N.N.N.N.N.N.N.N.N.N.N.N.N.N.N.N.N.N.N.",
"N.N.N.N.N.N.N.N.N.N.N.N.N.N.N.N.N.N.N.N.N.N.N.N.N.N.N.N.N.N.N.N.N.N.N.N.N.N.N.N.N.N.N.N.N.N.N.N.N.N.N.N.N.N.N.N.N.N.N.N.N.N.N.N.",
"N.N.N.N.N.N.N.N.N.N.N.N.N.N.N.N.N.N.N.N.N.N.N.N.N.N.N.N.N.N.N.N.N.N.N.N.N.N.N.N.N.N.N.N.N.N.N.N.N.N.N.N.N.N.N.N.N.N.N.N.N.N.N.N.",
"N.N.N.N.N.N.N.N.N.N.N.N.N.N.N.N.N.N.N.N.N.N.N.N.N.N.N.N.N.N.N.N.N.N.N.N.N.N.N.N.N.N.N.N.N.N.N.N.N.N.N.N.N.N.N.N.N.N.N.N.N.N.N.N.",
"N.N.N.N.N.N.N.N.N.N.N.N.N.N.N.N.N.N.N.N.N.N.N.N.N.N.N.N.N.N.N.N.N.N.N.N.N.N.N.N.N.N.N.N.N.N.N.N.N.N.N.N.N.N.N.N.N.N.N.N.N.N.N.N."
};
