/* XPM */
static char *result[] = {
/* columns rows colors chars-per-pixel */
"16 16 36 1 ",
"  c #4C8853",
". c #5BA264",
"X c #5CA565",
"o c #5DA566",
"O c #5DA666",
"+ c #5DA766",
"@ c #5EA868",
"# c #5FAA69",
"$ c #65B46F",
"% c #67B871",
"& c #67B971",
"* c #69BD74",
"= c #69BE74",
"- c #6ABF75",
"; c #6BC176",
": c #6CC377",
"> c #6DC478",
", c #6FC87A",
"< c #71C87C",
"1 c #72CB7E",
"2 c #71CC7D",
"3 c #71CD7D",
"4 c #72CF7E",
"5 c #73D07F",
"6 c #74D180",
"7 c #75D180",
"8 c #74D280",
"9 c #75D380",
"0 c #75D281",
"q c #75D381",
"w c #76D382",
"e c #75D481",
"r c #76D481",
"t c #76D482",
"y c #77D482",
"u c None",
/* pixels */
"uuuuuuuuuuuuuuuu",
"uuuuu6eeeeeuuuuu",
"uuuuu-eeeeeetuuu",
"uuequueeeeee;uuu",
"uueeuu2eeeeeuuuu",
"uqee7u%eeee5uuqu",
"u9eequueeee&uu8u",
"u8e#Ouu.XXXuu@ou",
"u4euuuuuuuuuuuuu",
"u>e0tyuutt<uut1u",
"uueeeeuu,euureuu",
"uu*eee0u$3uue=uu",
"uuu:eeeuu&uw>uuu",
"uuuu+8euuuu@uuuu",
"uuuuuu uuuuuuuuu",
"uuuuuuuuuuuuuuuu"
};
